<svg width="28" height="29" viewBox="0 0 28 29" fill="none" xmlns="http://www.w3.org/2000/svg">
<g id="more 1">
<g clip-path="url(#clip0_412_3918)">
<rect x="2" y="2.12109" width="24" height="24" rx="12" fill="white"/>
<g id="Group">
<g id="Group_2">
<path id="Vector" d="M14 2.12109C7.36766 2.12109 2 7.48814 2 14.1211C2 20.7534 7.36705 26.1211 14 26.1211C20.6323 26.1211 26 20.754 26 14.1211C26 7.48875 20.633 2.12109 14 2.12109ZM14 24.5211C8.26545 24.5211 3.59998 19.8557 3.59998 14.1211C3.59998 8.3865 8.26545 3.72108 14 3.72108C19.7345 3.72108 24.4 8.38655 24.4 14.1211C24.4 19.8556 19.7345 24.5211 14 24.5211Z" fill="#1B3F8A"/>
</g>
</g>
<g id="Group_3">
<g id="Group_4">
<path id="Vector_2" d="M19.4066 13.3211H14.7998V8.71432C14.7998 8.27253 14.4416 7.91431 13.9998 7.91431C13.5579 7.91431 13.1998 8.27248 13.1998 8.71432V13.3211H8.59298C8.15119 13.3211 7.79297 13.6793 7.79297 14.1211C7.79297 14.563 8.15114 14.9211 8.59298 14.9211H13.1998V19.5279C13.1998 19.9697 13.5579 20.3279 13.9998 20.3279C14.4416 20.3279 14.7998 19.9698 14.7998 19.5279V14.9211H19.4066C19.8484 14.9211 20.2066 14.563 20.2066 14.1211C20.2066 13.6793 19.8484 13.3211 19.4066 13.3211Z" fill="#1B3F8A"/>
</g>
</g>
</g>
<rect x="1" y="1.12109" width="26" height="26" rx="13" stroke="white" stroke-width="2"/>
</g>
<defs>
<clipPath id="clip0_412_3918">
<rect x="2" y="2.12109" width="24" height="24" rx="12" fill="white"/>
</clipPath>
</defs>
</svg>
